<?xml version="1.0" encoding="utf-8" standalone="no"?>
<!DOCTYPE svg PUBLIC "-//W3C//DTD SVG 1.1//EN"
  "http://www.w3.org/Graphics/SVG/1.1/DTD/svg11.dtd">
<svg xmlns:xlink="http://www.w3.org/1999/xlink" width="864pt" height="360pt" viewBox="0 0 864 360" xmlns="http://www.w3.org/2000/svg" version="1.1">
 <metadata>
  <rdf:RDF xmlns:dc="http://purl.org/dc/elements/1.1/" xmlns:cc="http://creativecommons.org/ns#" xmlns:rdf="http://www.w3.org/1999/02/22-rdf-syntax-ns#">
   <cc:Work>
    <dc:type rdf:resource="http://purl.org/dc/dcmitype/StillImage"/>
    <dc:date>2022-07-12T20:28:50.174006</dc:date>
    <dc:format>image/svg+xml</dc:format>
    <dc:creator>
     <cc:Agent>
      <dc:title>Matplotlib v3.5.2, https://matplotlib.org/</dc:title>
     </cc:Agent>
    </dc:creator>
   </cc:Work>
  </rdf:RDF>
 </metadata>
 <defs>
  <style type="text/css">*{stroke-linejoin: round; stroke-linecap: butt}</style>
 </defs>
 <g id="figure_1">
  <g id="patch_1">
   <path d="M 0 360 
L 864 360 
L 864 0 
L 0 0 
L 0 360 
z
" style="fill: none; opacity: 0"/>
  </g>
  <g id="axes_1">
   <g id="patch_2">
    <path d="M 108 320.4 
L 777.6 320.4 
L 777.6 43.2 
L 108 43.2 
L 108 320.4 
z
" style="fill: none; opacity: 0"/>
   </g>
   <g id="matplotlib.axis_1">
    <g id="xtick_1">
     <g id="line2d_1">
      <path d="M 205.689518 320.4 
L 205.689518 43.2 
" clip-path="url(#pe3c94a5e11)" style="fill: none; stroke-dasharray: 5.12,1.28,0.8,1.28; stroke-dashoffset: 0; stroke: #b0b0b0; stroke-width: 0.8"/>
     </g>
     <g id="line2d_2">
      <defs>
       <path id="md340345f3f" d="M 0 0 
L 0 3.5 
" style="stroke: #a9a9a9; stroke-width: 0.8"/>
      </defs>
      <g>
       <use xlink:href="#md340345f3f" x="205.689518" y="320.4" style="fill: #a9a9a9; stroke: #a9a9a9; stroke-width: 0.8"/>
      </g>
     </g>
     <g id="text_1">
      <!-- 2021-09 -->
      <g style="fill: #a9a9a9" transform="translate(184.798112 334.998438)scale(0.1 -0.1)">
       <defs>
        <path id="DejaVuSans-32" d="M 1228 531 
L 3431 531 
L 3431 0 
L 469 0 
L 469 531 
Q 828 903 1448 1529 
Q 2069 2156 2228 2338 
Q 2531 2678 2651 2914 
Q 2772 3150 2772 3378 
Q 2772 3750 2511 3984 
Q 2250 4219 1831 4219 
Q 1534 4219 1204 4116 
Q 875 4013 500 3803 
L 500 4441 
Q 881 4594 1212 4672 
Q 1544 4750 1819 4750 
Q 2544 4750 2975 4387 
Q 3406 4025 3406 3419 
Q 3406 3131 3298 2873 
Q 3191 2616 2906 2266 
Q 2828 2175 2409 1742 
Q 1991 1309 1228 531 
z
" transform="scale(0.015625)"/>
        <path id="DejaVuSans-30" d="M 2034 4250 
Q 1547 4250 1301 3770 
Q 1056 3291 1056 2328 
Q 1056 1369 1301 889 
Q 1547 409 2034 409 
Q 2525 409 2770 889 
Q 3016 1369 3016 2328 
Q 3016 3291 2770 3770 
Q 2525 4250 2034 4250 
z
M 2034 4750 
Q 2819 4750 3233 4129 
Q 3647 3509 3647 2328 
Q 3647 1150 3233 529 
Q 2819 -91 2034 -91 
Q 1250 -91 836 529 
Q 422 1150 422 2328 
Q 422 3509 836 4129 
Q 1250 4750 2034 4750 
z
" transform="scale(0.015625)"/>
        <path id="DejaVuSans-31" d="M 794 531 
L 1825 531 
L 1825 4091 
L 703 3866 
L 703 4441 
L 1819 4666 
L 2450 4666 
L 2450 531 
L 3481 531 
L 3481 0 
L 794 0 
L 794 531 
z
" transform="scale(0.015625)"/>
        <path id="DejaVuSans-2d" d="M 313 2009 
L 1997 2009 
L 1997 1497 
L 313 1497 
L 313 2009 
z
" transform="scale(0.015625)"/>
        <path id="DejaVuSans-39" d="M 703 97 
L 703 672 
Q 941 559 1184 500 
Q 1428 441 1663 441 
Q 2288 441 2617 861 
Q 2947 1281 2994 2138 
Q 2813 1869 2534 1725 
Q 2256 1581 1919 1581 
Q 1219 1581 811 2004 
Q 403 2428 403 3163 
Q 403 3881 828 4315 
Q 1253 4750 1959 4750 
Q 2769 4750 3195 4129 
Q 3622 3509 3622 2328 
Q 3622 1225 3098 567 
Q 2575 -91 1691 -91 
Q 1453 -91 1209 -44 
Q 966 3 703 97 
z
M 1959 2075 
Q 2384 2075 2632 2365 
Q 2881 2656 2881 3163 
Q 2881 3666 2632 3958 
Q 2384 4250 1959 4250 
Q 1534 4250 1286 3958 
Q 1038 3666 1038 3163 
Q 1038 2656 1286 2365 
Q 1534 2075 1959 2075 
z
" transform="scale(0.015625)"/>
       </defs>
       <use xlink:href="#DejaVuSans-32"/>
       <use xlink:href="#DejaVuSans-30" x="63.623047"/>
       <use xlink:href="#DejaVuSans-32" x="127.246094"/>
       <use xlink:href="#DejaVuSans-31" x="190.869141"/>
       <use xlink:href="#DejaVuSans-2d" x="254.492188"/>
       <use xlink:href="#DejaVuSans-30" x="290.576172"/>
       <use xlink:href="#DejaVuSans-39" x="354.199219"/>
      </g>
     </g>
    </g>
    <g id="xtick_2">
     <g id="line2d_3">
      <path d="M 310.88035 320.4 
L 310.88035 43.2 
" clip-path="url(#pe3c94a5e11)" style="fill: none; stroke-dasharray: 5.12,1.28,0.8,1.28; stroke-dashoffset: 0; stroke: #b0b0b0; stroke-width: 0.8"/>
     </g>
     <g id="line2d_4">
      <g>
       <use xlink:href="#md340345f3f" x="310.88035" y="320.4" style="fill: #a9a9a9; stroke: #a9a9a9; stroke-width: 0.8"/>
      </g>
     </g>
     <g id="text_2">
      <!-- 2021-11 -->
      <g style="fill: #a9a9a9" transform="translate(289.988944 334.998438)scale(0.1 -0.1)">
       <use xlink:href="#DejaVuSans-32"/>
       <use xlink:href="#DejaVuSans-30" x="63.623047"/>
       <use xlink:href="#DejaVuSans-32" x="127.246094"/>
       <use xlink:href="#DejaVuSans-31" x="190.869141"/>
       <use xlink:href="#DejaVuSans-2d" x="254.492188"/>
       <use xlink:href="#DejaVuSans-31" x="290.576172"/>
       <use xlink:href="#DejaVuSans-31" x="354.199219"/>
      </g>
     </g>
    </g>
    <g id="xtick_3">
     <g id="line2d_5">
      <path d="M 416.071182 320.4 
L 416.071182 43.2 
" clip-path="url(#pe3c94a5e11)" style="fill: none; stroke-dasharray: 5.12,1.28,0.8,1.28; stroke-dashoffset: 0; stroke: #b0b0b0; stroke-width: 0.8"/>
     </g>
     <g id="line2d_6">
      <g>
       <use xlink:href="#md340345f3f" x="416.071182" y="320.4" style="fill: #a9a9a9; stroke: #a9a9a9; stroke-width: 0.8"/>
      </g>
     </g>
     <g id="text_3">
      <!-- 2022-01 -->
      <g style="fill: #a9a9a9" transform="translate(395.179776 334.998438)scale(0.1 -0.1)">
       <use xlink:href="#DejaVuSans-32"/>
       <use xlink:href="#DejaVuSans-30" x="63.623047"/>
       <use xlink:href="#DejaVuSans-32" x="127.246094"/>
       <use xlink:href="#DejaVuSans-32" x="190.869141"/>
       <use xlink:href="#DejaVuSans-2d" x="254.492188"/>
       <use xlink:href="#DejaVuSans-30" x="290.576172"/>
       <use xlink:href="#DejaVuSans-31" x="354.199219"/>
      </g>
     </g>
    </g>
    <g id="xtick_4">
     <g id="line2d_7">
      <path d="M 517.813134 320.4 
L 517.813134 43.2 
" clip-path="url(#pe3c94a5e11)" style="fill: none; stroke-dasharray: 5.12,1.28,0.8,1.28; stroke-dashoffset: 0; stroke: #b0b0b0; stroke-width: 0.8"/>
     </g>
     <g id="line2d_8">
      <g>
       <use xlink:href="#md340345f3f" x="517.813134" y="320.4" style="fill: #a9a9a9; stroke: #a9a9a9; stroke-width: 0.8"/>
      </g>
     </g>
     <g id="text_4">
      <!-- 2022-03 -->
      <g style="fill: #a9a9a9" transform="translate(496.921728 334.998438)scale(0.1 -0.1)">
       <defs>
        <path id="DejaVuSans-33" d="M 2597 2516 
Q 3050 2419 3304 2112 
Q 3559 1806 3559 1356 
Q 3559 666 3084 287 
Q 2609 -91 1734 -91 
Q 1441 -91 1130 -33 
Q 819 25 488 141 
L 488 750 
Q 750 597 1062 519 
Q 1375 441 1716 441 
Q 2309 441 2620 675 
Q 2931 909 2931 1356 
Q 2931 1769 2642 2001 
Q 2353 2234 1838 2234 
L 1294 2234 
L 1294 2753 
L 1863 2753 
Q 2328 2753 2575 2939 
Q 2822 3125 2822 3475 
Q 2822 3834 2567 4026 
Q 2313 4219 1838 4219 
Q 1578 4219 1281 4162 
Q 984 4106 628 3988 
L 628 4550 
Q 988 4650 1302 4700 
Q 1616 4750 1894 4750 
Q 2613 4750 3031 4423 
Q 3450 4097 3450 3541 
Q 3450 3153 3228 2886 
Q 3006 2619 2597 2516 
z
" transform="scale(0.015625)"/>
       </defs>
       <use xlink:href="#DejaVuSans-32"/>
       <use xlink:href="#DejaVuSans-30" x="63.623047"/>
       <use xlink:href="#DejaVuSans-32" x="127.246094"/>
       <use xlink:href="#DejaVuSans-32" x="190.869141"/>
       <use xlink:href="#DejaVuSans-2d" x="254.492188"/>
       <use xlink:href="#DejaVuSans-30" x="290.576172"/>
       <use xlink:href="#DejaVuSans-33" x="354.199219"/>
      </g>
     </g>
    </g>
    <g id="xtick_5">
     <g id="line2d_9">
      <path d="M 623.003966 320.4 
L 623.003966 43.2 
" clip-path="url(#pe3c94a5e11)" style="fill: none; stroke-dasharray: 5.12,1.28,0.8,1.28; stroke-dashoffset: 0; stroke: #b0b0b0; stroke-width: 0.8"/>
     </g>
     <g id="line2d_10">
      <g>
       <use xlink:href="#md340345f3f" x="623.003966" y="320.4" style="fill: #a9a9a9; stroke: #a9a9a9; stroke-width: 0.8"/>
      </g>
     </g>
     <g id="text_5">
      <!-- 2022-05 -->
      <g style="fill: #a9a9a9" transform="translate(602.11256 334.998438)scale(0.1 -0.1)">
       <defs>
        <path id="DejaVuSans-35" d="M 691 4666 
L 3169 4666 
L 3169 4134 
L 1269 4134 
L 1269 2991 
Q 1406 3038 1543 3061 
Q 1681 3084 1819 3084 
Q 2600 3084 3056 2656 
Q 3513 2228 3513 1497 
Q 3513 744 3044 326 
Q 2575 -91 1722 -91 
Q 1428 -91 1123 -41 
Q 819 9 494 109 
L 494 744 
Q 775 591 1075 516 
Q 1375 441 1709 441 
Q 2250 441 2565 725 
Q 2881 1009 2881 1497 
Q 2881 1984 2565 2268 
Q 2250 2553 1709 2553 
Q 1456 2553 1204 2497 
Q 953 2441 691 2322 
L 691 4666 
z
" transform="scale(0.015625)"/>
       </defs>
       <use xlink:href="#DejaVuSans-32"/>
       <use xlink:href="#DejaVuSans-30" x="63.623047"/>
       <use xlink:href="#DejaVuSans-32" x="127.246094"/>
       <use xlink:href="#DejaVuSans-32" x="190.869141"/>
       <use xlink:href="#DejaVuSans-2d" x="254.492188"/>
       <use xlink:href="#DejaVuSans-30" x="290.576172"/>
       <use xlink:href="#DejaVuSans-35" x="354.199219"/>
      </g>
     </g>
    </g>
    <g id="xtick_6">
     <g id="line2d_11">
      <path d="M 728.194798 320.4 
L 728.194798 43.2 
" clip-path="url(#pe3c94a5e11)" style="fill: none; stroke-dasharray: 5.12,1.28,0.8,1.28; stroke-dashoffset: 0; stroke: #b0b0b0; stroke-width: 0.8"/>
     </g>
     <g id="line2d_12">
      <g>
       <use xlink:href="#md340345f3f" x="728.194798" y="320.4" style="fill: #a9a9a9; stroke: #a9a9a9; stroke-width: 0.8"/>
      </g>
     </g>
     <g id="text_6">
      <!-- 2022-07 -->
      <g style="fill: #a9a9a9" transform="translate(707.303392 334.998438)scale(0.1 -0.1)">
       <defs>
        <path id="DejaVuSans-37" d="M 525 4666 
L 3525 4666 
L 3525 4397 
L 1831 0 
L 1172 0 
L 2766 4134 
L 525 4134 
L 525 4666 
z
" transform="scale(0.015625)"/>
       </defs>
       <use xlink:href="#DejaVuSans-32"/>
       <use xlink:href="#DejaVuSans-30" x="63.623047"/>
       <use xlink:href="#DejaVuSans-32" x="127.246094"/>
       <use xlink:href="#DejaVuSans-32" x="190.869141"/>
       <use xlink:href="#DejaVuSans-2d" x="254.492188"/>
       <use xlink:href="#DejaVuSans-30" x="290.576172"/>
       <use xlink:href="#DejaVuSans-37" x="354.199219"/>
      </g>
     </g>
    </g>
   </g>
   <g id="matplotlib.axis_2">
    <g id="ytick_1">
     <g id="line2d_13">
      <path d="M 108 307.911357 
L 777.6 307.911357 
" clip-path="url(#pe3c94a5e11)" style="fill: none; stroke-dasharray: 5.12,1.28,0.8,1.28; stroke-dashoffset: 0; stroke: #b0b0b0; stroke-width: 0.8"/>
     </g>
     <g id="line2d_14">
      <defs>
       <path id="m8d253a4df0" d="M 0 0 
L -3.5 0 
" style="stroke: #a9a9a9; stroke-width: 0.8"/>
      </defs>
      <g>
       <use xlink:href="#m8d253a4df0" x="108" y="307.911357" style="fill: #a9a9a9; stroke: #a9a9a9; stroke-width: 0.8"/>
      </g>
     </g>
     <g id="text_7">
      <!-- 0 -->
      <g style="fill: #a9a9a9" transform="translate(94.6375 311.710575)scale(0.1 -0.1)">
       <use xlink:href="#DejaVuSans-30"/>
      </g>
     </g>
    </g>
    <g id="ytick_2">
     <g id="line2d_15">
      <path d="M 108 280.072205 
L 777.6 280.072205 
" clip-path="url(#pe3c94a5e11)" style="fill: none; stroke-dasharray: 5.12,1.28,0.8,1.28; stroke-dashoffset: 0; stroke: #b0b0b0; stroke-width: 0.8"/>
     </g>
     <g id="line2d_16">
      <g>
       <use xlink:href="#m8d253a4df0" x="108" y="280.072205" style="fill: #a9a9a9; stroke: #a9a9a9; stroke-width: 0.8"/>
      </g>
     </g>
     <g id="text_8">
      <!-- 250 -->
      <g style="fill: #a9a9a9" transform="translate(81.9125 283.871424)scale(0.1 -0.1)">
       <use xlink:href="#DejaVuSans-32"/>
       <use xlink:href="#DejaVuSans-35" x="63.623047"/>
       <use xlink:href="#DejaVuSans-30" x="127.246094"/>
      </g>
     </g>
    </g>
    <g id="ytick_3">
     <g id="line2d_17">
      <path d="M 108 252.233053 
L 777.6 252.233053 
" clip-path="url(#pe3c94a5e11)" style="fill: none; stroke-dasharray: 5.12,1.28,0.8,1.28; stroke-dashoffset: 0; stroke: #b0b0b0; stroke-width: 0.8"/>
     </g>
     <g id="line2d_18">
      <g>
       <use xlink:href="#m8d253a4df0" x="108" y="252.233053" style="fill: #a9a9a9; stroke: #a9a9a9; stroke-width: 0.8"/>
      </g>
     </g>
     <g id="text_9">
      <!-- 500 -->
      <g style="fill: #a9a9a9" transform="translate(81.9125 256.032272)scale(0.1 -0.1)">
       <use xlink:href="#DejaVuSans-35"/>
       <use xlink:href="#DejaVuSans-30" x="63.623047"/>
       <use xlink:href="#DejaVuSans-30" x="127.246094"/>
      </g>
     </g>
    </g>
    <g id="ytick_4">
     <g id="line2d_19">
      <path d="M 108 224.393902 
L 777.6 224.393902 
" clip-path="url(#pe3c94a5e11)" style="fill: none; stroke-dasharray: 5.12,1.28,0.8,1.28; stroke-dashoffset: 0; stroke: #b0b0b0; stroke-width: 0.8"/>
     </g>
     <g id="line2d_20">
      <g>
       <use xlink:href="#m8d253a4df0" x="108" y="224.393902" style="fill: #a9a9a9; stroke: #a9a9a9; stroke-width: 0.8"/>
      </g>
     </g>
     <g id="text_10">
      <!-- 750 -->
      <g style="fill: #a9a9a9" transform="translate(81.9125 228.193121)scale(0.1 -0.1)">
       <use xlink:href="#DejaVuSans-37"/>
       <use xlink:href="#DejaVuSans-35" x="63.623047"/>
       <use xlink:href="#DejaVuSans-30" x="127.246094"/>
      </g>
     </g>
    </g>
    <g id="ytick_5">
     <g id="line2d_21">
      <path d="M 108 196.55475 
L 777.6 196.55475 
" clip-path="url(#pe3c94a5e11)" style="fill: none; stroke-dasharray: 5.12,1.28,0.8,1.28; stroke-dashoffset: 0; stroke: #b0b0b0; stroke-width: 0.8"/>
     </g>
     <g id="line2d_22">
      <g>
       <use xlink:href="#m8d253a4df0" x="108" y="196.55475" style="fill: #a9a9a9; stroke: #a9a9a9; stroke-width: 0.8"/>
      </g>
     </g>
     <g id="text_11">
      <!-- 1000 -->
      <g style="fill: #a9a9a9" transform="translate(75.55 200.353969)scale(0.1 -0.1)">
       <use xlink:href="#DejaVuSans-31"/>
       <use xlink:href="#DejaVuSans-30" x="63.623047"/>
       <use xlink:href="#DejaVuSans-30" x="127.246094"/>
       <use xlink:href="#DejaVuSans-30" x="190.869141"/>
      </g>
     </g>
    </g>
    <g id="ytick_6">
     <g id="line2d_23">
      <path d="M 108 168.715599 
L 777.6 168.715599 
" clip-path="url(#pe3c94a5e11)" style="fill: none; stroke-dasharray: 5.12,1.28,0.8,1.28; stroke-dashoffset: 0; stroke: #b0b0b0; stroke-width: 0.8"/>
     </g>
     <g id="line2d_24">
      <g>
       <use xlink:href="#m8d253a4df0" x="108" y="168.715599" style="fill: #a9a9a9; stroke: #a9a9a9; stroke-width: 0.8"/>
      </g>
     </g>
     <g id="text_12">
      <!-- 1250 -->
      <g style="fill: #a9a9a9" transform="translate(75.55 172.514818)scale(0.1 -0.1)">
       <use xlink:href="#DejaVuSans-31"/>
       <use xlink:href="#DejaVuSans-32" x="63.623047"/>
       <use xlink:href="#DejaVuSans-35" x="127.246094"/>
       <use xlink:href="#DejaVuSans-30" x="190.869141"/>
      </g>
     </g>
    </g>
    <g id="ytick_7">
     <g id="line2d_25">
      <path d="M 108 140.876447 
L 777.6 140.876447 
" clip-path="url(#pe3c94a5e11)" style="fill: none; stroke-dasharray: 5.12,1.28,0.8,1.28; stroke-dashoffset: 0; stroke: #b0b0b0; stroke-width: 0.8"/>
     </g>
     <g id="line2d_26">
      <g>
       <use xlink:href="#m8d253a4df0" x="108" y="140.876447" style="fill: #a9a9a9; stroke: #a9a9a9; stroke-width: 0.8"/>
      </g>
     </g>
     <g id="text_13">
      <!-- 1500 -->
      <g style="fill: #a9a9a9" transform="translate(75.55 144.675666)scale(0.1 -0.1)">
       <use xlink:href="#DejaVuSans-31"/>
       <use xlink:href="#DejaVuSans-35" x="63.623047"/>
       <use xlink:href="#DejaVuSans-30" x="127.246094"/>
       <use xlink:href="#DejaVuSans-30" x="190.869141"/>
      </g>
     </g>
    </g>
    <g id="ytick_8">
     <g id="line2d_27">
      <path d="M 108 113.037296 
L 777.6 113.037296 
" clip-path="url(#pe3c94a5e11)" style="fill: none; stroke-dasharray: 5.12,1.28,0.8,1.28; stroke-dashoffset: 0; stroke: #b0b0b0; stroke-width: 0.8"/>
     </g>
     <g id="line2d_28">
      <g>
       <use xlink:href="#m8d253a4df0" x="108" y="113.037296" style="fill: #a9a9a9; stroke: #a9a9a9; stroke-width: 0.8"/>
      </g>
     </g>
     <g id="text_14">
      <!-- 1750 -->
      <g style="fill: #a9a9a9" transform="translate(75.55 116.836514)scale(0.1 -0.1)">
       <use xlink:href="#DejaVuSans-31"/>
       <use xlink:href="#DejaVuSans-37" x="63.623047"/>
       <use xlink:href="#DejaVuSans-35" x="127.246094"/>
       <use xlink:href="#DejaVuSans-30" x="190.869141"/>
      </g>
     </g>
    </g>
    <g id="ytick_9">
     <g id="line2d_29">
      <path d="M 108 85.198144 
L 777.6 85.198144 
" clip-path="url(#pe3c94a5e11)" style="fill: none; stroke-dasharray: 5.12,1.28,0.8,1.28; stroke-dashoffset: 0; stroke: #b0b0b0; stroke-width: 0.8"/>
     </g>
     <g id="line2d_30">
      <g>
       <use xlink:href="#m8d253a4df0" x="108" y="85.198144" style="fill: #a9a9a9; stroke: #a9a9a9; stroke-width: 0.8"/>
      </g>
     </g>
     <g id="text_15">
      <!-- 2000 -->
      <g style="fill: #a9a9a9" transform="translate(75.55 88.997363)scale(0.1 -0.1)">
       <use xlink:href="#DejaVuSans-32"/>
       <use xlink:href="#DejaVuSans-30" x="63.623047"/>
       <use xlink:href="#DejaVuSans-30" x="127.246094"/>
       <use xlink:href="#DejaVuSans-30" x="190.869141"/>
      </g>
     </g>
    </g>
    <g id="ytick_10">
     <g id="line2d_31">
      <path d="M 108 57.358992 
L 777.6 57.358992 
" clip-path="url(#pe3c94a5e11)" style="fill: none; stroke-dasharray: 5.12,1.28,0.8,1.28; stroke-dashoffset: 0; stroke: #b0b0b0; stroke-width: 0.8"/>
     </g>
     <g id="line2d_32">
      <g>
       <use xlink:href="#m8d253a4df0" x="108" y="57.358992" style="fill: #a9a9a9; stroke: #a9a9a9; stroke-width: 0.8"/>
      </g>
     </g>
     <g id="text_16">
      <!-- 2250 -->
      <g style="fill: #a9a9a9" transform="translate(75.55 61.158211)scale(0.1 -0.1)">
       <use xlink:href="#DejaVuSans-32"/>
       <use xlink:href="#DejaVuSans-32" x="63.623047"/>
       <use xlink:href="#DejaVuSans-35" x="127.246094"/>
       <use xlink:href="#DejaVuSans-30" x="190.869141"/>
      </g>
     </g>
    </g>
   </g>
   <g id="line2d_33">
    <path d="M 138.436364 307.46593 
L 141.885243 307.243217 
L 147.058563 306.686434 
L 148.783003 306.686434 
L 150.507443 306.018294 
L 153.956322 305.795581 
L 166.027401 303.457092 
L 167.751841 303.345736 
L 174.649601 302.56624 
L 176.374041 302.454883 
L 178.098481 301.56403 
L 179.82292 301.118604 
L 181.54736 299.114185 
L 183.2718 298.000619 
L 184.99624 294.103137 
L 186.72068 293.880424 
L 188.44512 292.544145 
L 190.16956 291.876005 
L 191.893999 290.873796 
L 197.067319 286.753601 
L 198.791759 285.862749 
L 202.240639 284.415113 
L 203.965079 283.19019 
L 205.689518 282.52205 
L 209.138398 280.406275 
L 210.862838 279.738135 
L 212.587278 276.95422 
L 214.311718 275.617941 
L 216.036158 274.615731 
L 217.760597 273.836235 
L 224.658357 272.834026 
L 229.831677 271.943173 
L 233.280556 271.72046 
L 235.004996 271.275033 
L 236.729436 270.38418 
L 240.178316 270.161467 
L 241.902756 270.161467 
L 245.351635 269.604684 
L 248.800515 269.270614 
L 250.524955 268.602475 
L 259.147154 266.932125 
L 260.871594 266.820769 
L 262.596034 266.598056 
L 264.320474 266.152629 
L 269.493793 265.48449 
L 271.218233 264.593637 
L 272.942673 264.370924 
L 276.391553 263.146001 
L 279.840433 262.811931 
L 281.564873 262.255148 
L 283.289312 261.921078 
L 285.013752 261.809722 
L 286.738192 261.364295 
L 288.462632 261.141582 
L 291.911512 260.028016 
L 293.635952 259.805303 
L 295.360391 259.805303 
L 300.533711 259.24852 
L 302.258151 258.691737 
L 303.982591 258.58038 
L 307.431471 257.578171 
L 309.15591 257.132744 
L 312.60479 256.798674 
L 314.32923 256.687318 
L 319.50255 255.685108 
L 321.226989 255.016969 
L 322.951429 252.789837 
L 324.675869 252.121697 
L 326.400309 251.230844 
L 328.124749 251.008131 
L 329.849189 250.562704 
L 331.573629 250.339991 
L 335.022508 248.892355 
L 336.746948 248.780999 
L 345.369148 246.44251 
L 347.093587 246.44251 
L 350.542467 245.997084 
L 352.266907 245.328944 
L 355.715787 244.326734 
L 357.440227 243.769951 
L 359.164666 243.435882 
L 360.889106 243.324525 
L 364.337986 241.876889 
L 366.062426 241.654176 
L 367.786866 240.87468 
L 371.235746 240.54061 
L 372.960185 240.429253 
L 378.133505 239.5384 
L 381.582385 238.981617 
L 386.755704 237.979408 
L 388.480144 237.422625 
L 390.204584 237.199912 
L 391.929024 236.420415 
L 393.653464 235.863632 
L 395.377904 234.861423 
L 397.102344 234.415996 
L 398.826783 234.193283 
L 402.275663 233.079717 
L 405.724543 231.186655 
L 407.448983 229.961732 
L 409.173423 229.739019 
L 410.897862 229.182236 
L 412.622302 228.959523 
L 414.346742 228.514096 
L 416.071182 228.291383 
L 417.795622 227.511887 
L 421.244502 226.843747 
L 424.693381 225.173398 
L 426.417821 224.727972 
L 428.142261 224.505259 
L 429.866701 223.837119 
L 436.76446 222.50084 
L 440.21334 220.941847 
L 441.93778 220.607777 
L 443.66222 219.828281 
L 445.38666 219.605568 
L 447.1111 218.826072 
L 448.83554 218.380645 
L 452.284419 218.046575 
L 455.733299 216.821653 
L 457.457739 216.598939 
L 459.182179 216.598939 
L 460.906619 215.819443 
L 464.355498 215.26266 
L 466.079938 214.594521 
L 467.804378 214.594521 
L 469.528818 214.483164 
L 476.426577 213.592311 
L 479.875457 211.921962 
L 483.324337 210.36297 
L 485.048777 209.917543 
L 486.773217 208.803977 
L 488.497656 208.247194 
L 491.946536 206.688202 
L 493.670976 206.354132 
L 495.395416 205.574635 
L 497.119856 205.017852 
L 498.844296 203.79293 
L 500.568736 202.902077 
L 502.293175 201.120371 
L 504.017615 198.225099 
L 505.742055 195.775254 
L 507.466495 195.218471 
L 509.190935 195.107114 
L 512.639815 192.545913 
L 514.364254 192.100486 
L 516.088694 191.098277 
L 517.813134 190.764207 
L 519.537574 189.205214 
L 521.262014 188.759788 
L 526.435334 186.421299 
L 528.159773 184.41688 
L 529.884213 181.632965 
L 531.608653 180.630756 
L 533.333093 177.84684 
L 535.057533 176.176491 
L 536.781973 175.285639 
L 538.506413 174.728856 
L 540.230852 173.503933 
L 543.679732 171.833584 
L 545.404172 170.608661 
L 547.128612 169.161025 
L 548.853052 167.936103 
L 550.577492 166.933893 
L 552.301931 164.372691 
L 554.026371 160.252497 
L 555.750811 157.691295 
L 557.475251 156.243659 
L 559.199691 155.352806 
L 562.648571 152.012108 
L 566.09745 149.228193 
L 569.54633 146.444278 
L 571.27077 144.885285 
L 572.99521 142.43544 
L 574.71965 140.765091 
L 576.44409 139.428811 
L 579.892969 137.090323 
L 585.066289 133.081485 
L 586.790729 132.636058 
L 591.964048 129.852143 
L 595.412928 127.959081 
L 597.137368 127.179585 
L 600.586248 124.172956 
L 602.310688 122.057181 
L 605.759567 119.718692 
L 607.484007 119.273266 
L 609.208447 118.382413 
L 610.932887 117.15749 
L 614.381767 115.375784 
L 616.106207 115.041715 
L 621.279526 111.812373 
L 623.003966 110.142024 
L 624.728406 108.917101 
L 626.452846 108.360318 
L 628.177286 107.135395 
L 629.901725 106.355899 
L 631.626165 105.130977 
L 633.350605 104.35148 
L 635.075045 103.237914 
L 636.799485 101.790278 
L 640.248365 100.565356 
L 641.972805 99.785859 
L 643.697244 99.340433 
L 645.421684 98.226867 
L 647.146124 97.781441 
L 660.941643 92.436323 
L 664.390523 91.768184 
L 666.114963 90.097835 
L 667.839403 88.761555 
L 669.563842 88.093416 
L 676.461602 84.084578 
L 679.910482 82.859655 
L 681.634921 81.523376 
L 683.359361 80.855236 
L 688.532681 77.625895 
L 693.706001 76.512329 
L 697.15488 75.510119 
L 702.3282 72.614848 
L 704.05264 72.392134 
L 705.77708 71.723995 
L 707.501519 71.501281 
L 709.225959 70.833142 
L 710.950399 69.719576 
L 712.674839 68.27194 
L 714.399279 67.158374 
L 716.123719 66.824304 
L 717.848159 65.933451 
L 719.572599 65.599381 
L 721.297038 64.931242 
L 723.021478 63.706319 
L 724.745918 63.149536 
L 726.470358 62.37004 
L 731.643678 61.03376 
L 733.368117 60.365621 
L 735.092557 60.254264 
L 736.816997 59.697481 
L 740.265877 58.027132 
L 741.990317 57.470349 
L 743.714757 57.136279 
L 745.439196 56.356783 
L 747.163636 55.8 
L 747.163636 55.8 
" clip-path="url(#pe3c94a5e11)" style="fill: none; stroke: #1f77b4; stroke-width: 1.5; stroke-linecap: square"/>
   </g>
   <g id="line2d_34">
    <path d="M 140.160804 307.8 
L 143.609683 307.8 
L 147.058563 307.354574 
L 155.680762 307.354574 
L 159.129642 307.13186 
L 160.854082 307.13186 
L 162.578522 307.020504 
L 166.027401 307.020504 
L 169.476281 306.797791 
L 176.374041 306.797791 
L 178.098481 306.352364 
L 179.82292 306.352364 
L 181.54736 306.129651 
L 183.2718 306.129651 
L 191.893999 305.127441 
L 197.067319 304.793372 
L 198.791759 304.793372 
L 202.240639 304.570658 
L 203.965079 304.347945 
L 207.413958 304.347945 
L 209.138398 304.013875 
L 210.862838 304.013875 
L 212.587278 303.902519 
L 214.311718 303.902519 
L 217.760597 303.457092 
L 224.658357 303.457092 
L 226.382797 303.234379 
L 233.280556 303.234379 
L 236.729436 303.011666 
L 238.453876 303.011666 
L 240.178316 302.900309 
L 250.524955 302.900309 
L 252.249395 302.788953 
L 255.698275 302.788953 
L 257.422714 302.677596 
L 262.596034 302.677596 
L 264.320474 302.56624 
L 266.044914 302.56624 
L 267.769354 302.454883 
L 269.493793 302.454883 
L 271.218233 302.343526 
L 278.115993 302.343526 
L 279.840433 302.120813 
L 281.564873 302.120813 
L 283.289312 302.009456 
L 285.013752 302.009456 
L 288.462632 301.786743 
L 290.187072 301.786743 
L 291.911512 301.675387 
L 298.809271 301.675387 
L 300.533711 301.56403 
L 303.982591 301.56403 
L 305.707031 301.452673 
L 310.88035 301.452673 
L 312.60479 301.341317 
L 314.32923 301.341317 
L 319.50255 300.673177 
L 321.226989 300.673177 
L 322.951429 300.561821 
L 328.124749 300.561821 
L 329.849189 300.450464 
L 331.573629 300.227751 
L 335.022508 300.227751 
L 336.746948 300.116394 
L 338.471388 300.116394 
L 340.195828 300.005038 
L 345.369148 300.005038 
L 348.818027 299.782324 
L 352.266907 299.782324 
L 353.991347 299.670968 
L 359.164666 299.114185 
L 360.889106 299.002828 
L 362.613546 299.002828 
L 364.337986 298.891471 
L 366.062426 298.891471 
L 367.786866 298.780115 
L 369.511306 298.780115 
L 371.235746 298.668758 
L 376.409065 298.668758 
L 378.133505 298.446045 
L 383.306825 298.446045 
L 388.480144 297.889262 
L 390.204584 297.889262 
L 391.929024 297.777905 
L 393.653464 297.777905 
L 395.377904 297.666549 
L 400.551223 297.666549 
L 407.448983 296.887053 
L 409.173423 296.775696 
L 410.897862 296.441626 
L 412.622302 296.441626 
L 414.346742 296.33027 
L 417.795622 296.33027 
L 419.520062 296.218913 
L 424.693381 295.66213 
L 429.866701 295.32806 
L 431.591141 295.32806 
L 435.040021 295.105347 
L 438.4889 295.105347 
L 443.66222 294.771277 
L 447.1111 294.771277 
L 450.559979 294.437207 
L 452.284419 294.325851 
L 455.733299 294.325851 
L 457.457739 294.103137 
L 459.182179 294.103137 
L 462.631058 293.880424 
L 464.355498 293.657711 
L 467.804378 293.657711 
L 469.528818 293.546354 
L 471.253258 293.546354 
L 476.426577 293.212285 
L 481.599897 293.212285 
L 485.048777 292.989571 
L 491.946536 292.989571 
L 493.670976 292.878215 
L 495.395416 292.878215 
L 502.293175 292.098719 
L 504.017615 292.098719 
L 507.466495 291.764649 
L 509.190935 291.764649 
L 512.639815 291.541935 
L 514.364254 291.541935 
L 516.088694 291.207866 
L 517.813134 291.096509 
L 519.537574 290.873796 
L 521.262014 290.428369 
L 524.710894 290.205656 
L 526.435334 289.76023 
L 528.159773 289.648873 
L 533.333093 288.869377 
L 535.057533 288.535307 
L 536.781973 288.423951 
L 538.506413 288.423951 
L 540.230852 288.312594 
L 541.955292 288.312594 
L 543.679732 288.089881 
L 545.404172 288.089881 
L 548.853052 287.533098 
L 555.750811 286.308175 
L 557.475251 286.308175 
L 560.924131 285.862749 
L 562.648571 285.862749 
L 567.82189 285.528679 
L 572.99521 284.971896 
L 574.71965 284.860539 
L 576.44409 284.860539 
L 578.168529 284.749183 
L 581.617409 284.415113 
L 585.066289 284.415113 
L 591.964048 283.52426 
L 593.688488 283.52426 
L 598.861808 282.633407 
L 602.310688 282.410694 
L 607.484007 282.410694 
L 609.208447 281.965267 
L 610.932887 281.742554 
L 612.657327 281.742554 
L 616.106207 281.519841 
L 617.830646 281.519841 
L 619.555086 281.185771 
L 621.279526 281.074414 
L 623.003966 281.074414 
L 628.177286 280.294918 
L 629.901725 279.849492 
L 631.626165 279.626779 
L 633.350605 279.626779 
L 636.799485 279.404065 
L 638.523925 279.181352 
L 640.248365 279.181352 
L 643.697244 278.958639 
L 647.146124 278.958639 
L 650.595004 278.735926 
L 652.319444 278.735926 
L 657.492763 278.179143 
L 659.217203 278.179143 
L 662.666083 277.95643 
L 666.114963 277.62236 
L 669.563842 277.399646 
L 674.737162 277.399646 
L 678.186042 277.065577 
L 681.634921 277.065577 
L 686.808241 276.508794 
L 688.532681 276.397437 
L 690.257121 276.397437 
L 691.981561 276.174724 
L 695.43044 276.174724 
L 697.15488 276.063367 
L 698.87932 275.729297 
L 702.3282 275.729297 
L 704.05264 275.506584 
L 705.77708 275.506584 
L 709.225959 275.283871 
L 710.950399 275.283871 
L 712.674839 274.949801 
L 716.123719 274.949801 
L 717.848159 274.838445 
L 723.021478 274.838445 
L 728.194798 274.504375 
L 731.643678 274.504375 
L 733.368117 274.170305 
L 735.092557 274.058948 
L 738.541437 274.058948 
L 740.265877 273.947592 
L 741.990317 273.947592 
L 743.714757 273.836235 
L 747.163636 273.836235 
L 747.163636 273.836235 
" clip-path="url(#pe3c94a5e11)" style="fill: none; stroke: #ff7f0e; stroke-width: 1.5; stroke-linecap: square"/>
   </g>
   <g id="patch_3">
    <path d="M 108 320.4 
L 108 43.2 
" style="fill: none; stroke: #a9a9a9; stroke-width: 0.8; stroke-linejoin: miter; stroke-linecap: square"/>
   </g>
   <g id="patch_4">
    <path d="M 777.6 320.4 
L 777.6 43.2 
" style="fill: none"/>
   </g>
   <g id="patch_5">
    <path d="M 108 320.4 
L 777.6 320.4 
" style="fill: none; stroke: #a9a9a9; stroke-width: 0.8; stroke-linejoin: miter; stroke-linecap: square"/>
   </g>
   <g id="patch_6">
    <path d="M 108 43.2 
L 777.6 43.2 
" style="fill: none"/>
   </g>
   <g id="text_17">
    <!-- get_subscribe history -->
    <g style="fill: #a9a9a9" transform="translate(378.6075 37.2)scale(0.12 -0.12)">
     <defs>
      <path id="DejaVuSans-67" d="M 2906 1791 
Q 2906 2416 2648 2759 
Q 2391 3103 1925 3103 
Q 1463 3103 1205 2759 
Q 947 2416 947 1791 
Q 947 1169 1205 825 
Q 1463 481 1925 481 
Q 2391 481 2648 825 
Q 2906 1169 2906 1791 
z
M 3481 434 
Q 3481 -459 3084 -895 
Q 2688 -1331 1869 -1331 
Q 1566 -1331 1297 -1286 
Q 1028 -1241 775 -1147 
L 775 -588 
Q 1028 -725 1275 -790 
Q 1522 -856 1778 -856 
Q 2344 -856 2625 -561 
Q 2906 -266 2906 331 
L 2906 616 
Q 2728 306 2450 153 
Q 2172 0 1784 0 
Q 1141 0 747 490 
Q 353 981 353 1791 
Q 353 2603 747 3093 
Q 1141 3584 1784 3584 
Q 2172 3584 2450 3431 
Q 2728 3278 2906 2969 
L 2906 3500 
L 3481 3500 
L 3481 434 
z
" transform="scale(0.015625)"/>
      <path id="DejaVuSans-65" d="M 3597 1894 
L 3597 1613 
L 953 1613 
Q 991 1019 1311 708 
Q 1631 397 2203 397 
Q 2534 397 2845 478 
Q 3156 559 3463 722 
L 3463 178 
Q 3153 47 2828 -22 
Q 2503 -91 2169 -91 
Q 1331 -91 842 396 
Q 353 884 353 1716 
Q 353 2575 817 3079 
Q 1281 3584 2069 3584 
Q 2775 3584 3186 3129 
Q 3597 2675 3597 1894 
z
M 3022 2063 
Q 3016 2534 2758 2815 
Q 2500 3097 2075 3097 
Q 1594 3097 1305 2825 
Q 1016 2553 972 2059 
L 3022 2063 
z
" transform="scale(0.015625)"/>
      <path id="DejaVuSans-74" d="M 1172 4494 
L 1172 3500 
L 2356 3500 
L 2356 3053 
L 1172 3053 
L 1172 1153 
Q 1172 725 1289 603 
Q 1406 481 1766 481 
L 2356 481 
L 2356 0 
L 1766 0 
Q 1100 0 847 248 
Q 594 497 594 1153 
L 594 3053 
L 172 3053 
L 172 3500 
L 594 3500 
L 594 4494 
L 1172 4494 
z
" transform="scale(0.015625)"/>
      <path id="DejaVuSans-5f" d="M 3263 -1063 
L 3263 -1509 
L -63 -1509 
L -63 -1063 
L 3263 -1063 
z
" transform="scale(0.015625)"/>
      <path id="DejaVuSans-73" d="M 2834 3397 
L 2834 2853 
Q 2591 2978 2328 3040 
Q 2066 3103 1784 3103 
Q 1356 3103 1142 2972 
Q 928 2841 928 2578 
Q 928 2378 1081 2264 
Q 1234 2150 1697 2047 
L 1894 2003 
Q 2506 1872 2764 1633 
Q 3022 1394 3022 966 
Q 3022 478 2636 193 
Q 2250 -91 1575 -91 
Q 1294 -91 989 -36 
Q 684 19 347 128 
L 347 722 
Q 666 556 975 473 
Q 1284 391 1588 391 
Q 1994 391 2212 530 
Q 2431 669 2431 922 
Q 2431 1156 2273 1281 
Q 2116 1406 1581 1522 
L 1381 1569 
Q 847 1681 609 1914 
Q 372 2147 372 2553 
Q 372 3047 722 3315 
Q 1072 3584 1716 3584 
Q 2034 3584 2315 3537 
Q 2597 3491 2834 3397 
z
" transform="scale(0.015625)"/>
      <path id="DejaVuSans-75" d="M 544 1381 
L 544 3500 
L 1119 3500 
L 1119 1403 
Q 1119 906 1312 657 
Q 1506 409 1894 409 
Q 2359 409 2629 706 
Q 2900 1003 2900 1516 
L 2900 3500 
L 3475 3500 
L 3475 0 
L 2900 0 
L 2900 538 
Q 2691 219 2414 64 
Q 2138 -91 1772 -91 
Q 1169 -91 856 284 
Q 544 659 544 1381 
z
M 1991 3584 
L 1991 3584 
z
" transform="scale(0.015625)"/>
      <path id="DejaVuSans-62" d="M 3116 1747 
Q 3116 2381 2855 2742 
Q 2594 3103 2138 3103 
Q 1681 3103 1420 2742 
Q 1159 2381 1159 1747 
Q 1159 1113 1420 752 
Q 1681 391 2138 391 
Q 2594 391 2855 752 
Q 3116 1113 3116 1747 
z
M 1159 2969 
Q 1341 3281 1617 3432 
Q 1894 3584 2278 3584 
Q 2916 3584 3314 3078 
Q 3713 2572 3713 1747 
Q 3713 922 3314 415 
Q 2916 -91 2278 -91 
Q 1894 -91 1617 61 
Q 1341 213 1159 525 
L 1159 0 
L 581 0 
L 581 4863 
L 1159 4863 
L 1159 2969 
z
" transform="scale(0.015625)"/>
      <path id="DejaVuSans-63" d="M 3122 3366 
L 3122 2828 
Q 2878 2963 2633 3030 
Q 2388 3097 2138 3097 
Q 1578 3097 1268 2742 
Q 959 2388 959 1747 
Q 959 1106 1268 751 
Q 1578 397 2138 397 
Q 2388 397 2633 464 
Q 2878 531 3122 666 
L 3122 134 
Q 2881 22 2623 -34 
Q 2366 -91 2075 -91 
Q 1284 -91 818 406 
Q 353 903 353 1747 
Q 353 2603 823 3093 
Q 1294 3584 2113 3584 
Q 2378 3584 2631 3529 
Q 2884 3475 3122 3366 
z
" transform="scale(0.015625)"/>
      <path id="DejaVuSans-72" d="M 2631 2963 
Q 2534 3019 2420 3045 
Q 2306 3072 2169 3072 
Q 1681 3072 1420 2755 
Q 1159 2438 1159 1844 
L 1159 0 
L 581 0 
L 581 3500 
L 1159 3500 
L 1159 2956 
Q 1341 3275 1631 3429 
Q 1922 3584 2338 3584 
Q 2397 3584 2469 3576 
Q 2541 3569 2628 3553 
L 2631 2963 
z
" transform="scale(0.015625)"/>
      <path id="DejaVuSans-69" d="M 603 3500 
L 1178 3500 
L 1178 0 
L 603 0 
L 603 3500 
z
M 603 4863 
L 1178 4863 
L 1178 4134 
L 603 4134 
L 603 4863 
z
" transform="scale(0.015625)"/>
      <path id="DejaVuSans-20" transform="scale(0.015625)"/>
      <path id="DejaVuSans-68" d="M 3513 2113 
L 3513 0 
L 2938 0 
L 2938 2094 
Q 2938 2591 2744 2837 
Q 2550 3084 2163 3084 
Q 1697 3084 1428 2787 
Q 1159 2491 1159 1978 
L 1159 0 
L 581 0 
L 581 4863 
L 1159 4863 
L 1159 2956 
Q 1366 3272 1645 3428 
Q 1925 3584 2291 3584 
Q 2894 3584 3203 3211 
Q 3513 2838 3513 2113 
z
" transform="scale(0.015625)"/>
      <path id="DejaVuSans-6f" d="M 1959 3097 
Q 1497 3097 1228 2736 
Q 959 2375 959 1747 
Q 959 1119 1226 758 
Q 1494 397 1959 397 
Q 2419 397 2687 759 
Q 2956 1122 2956 1747 
Q 2956 2369 2687 2733 
Q 2419 3097 1959 3097 
z
M 1959 3584 
Q 2709 3584 3137 3096 
Q 3566 2609 3566 1747 
Q 3566 888 3137 398 
Q 2709 -91 1959 -91 
Q 1206 -91 779 398 
Q 353 888 353 1747 
Q 353 2609 779 3096 
Q 1206 3584 1959 3584 
z
" transform="scale(0.015625)"/>
      <path id="DejaVuSans-79" d="M 2059 -325 
Q 1816 -950 1584 -1140 
Q 1353 -1331 966 -1331 
L 506 -1331 
L 506 -850 
L 844 -850 
Q 1081 -850 1212 -737 
Q 1344 -625 1503 -206 
L 1606 56 
L 191 3500 
L 800 3500 
L 1894 763 
L 2988 3500 
L 3597 3500 
L 2059 -325 
z
" transform="scale(0.015625)"/>
     </defs>
     <use xlink:href="#DejaVuSans-67"/>
     <use xlink:href="#DejaVuSans-65" x="63.476562"/>
     <use xlink:href="#DejaVuSans-74" x="125"/>
     <use xlink:href="#DejaVuSans-5f" x="164.208984"/>
     <use xlink:href="#DejaVuSans-73" x="214.208984"/>
     <use xlink:href="#DejaVuSans-75" x="266.308594"/>
     <use xlink:href="#DejaVuSans-62" x="329.6875"/>
     <use xlink:href="#DejaVuSans-73" x="393.164062"/>
     <use xlink:href="#DejaVuSans-63" x="445.263672"/>
     <use xlink:href="#DejaVuSans-72" x="500.244141"/>
     <use xlink:href="#DejaVuSans-69" x="541.357422"/>
     <use xlink:href="#DejaVuSans-62" x="569.140625"/>
     <use xlink:href="#DejaVuSans-65" x="632.617188"/>
     <use xlink:href="#DejaVuSans-20" x="694.140625"/>
     <use xlink:href="#DejaVuSans-68" x="725.927734"/>
     <use xlink:href="#DejaVuSans-69" x="789.306641"/>
     <use xlink:href="#DejaVuSans-73" x="817.089844"/>
     <use xlink:href="#DejaVuSans-74" x="869.189453"/>
     <use xlink:href="#DejaVuSans-6f" x="908.398438"/>
     <use xlink:href="#DejaVuSans-72" x="969.580078"/>
     <use xlink:href="#DejaVuSans-79" x="1010.693359"/>
    </g>
   </g>
   <g id="legend_1">
    <g id="line2d_35">
     <path d="M 815.08 328.498438 
L 825.08 328.498438 
L 835.08 328.498438 
" style="fill: none; stroke: #1f77b4; stroke-width: 1.5; stroke-linecap: square"/>
    </g>
    <g id="text_18">
     <!-- star -->
     <g style="fill: #a9a9a9" transform="translate(843.08 331.998438)scale(0.1 -0.1)">
      <defs>
       <path id="DejaVuSans-61" d="M 2194 1759 
Q 1497 1759 1228 1600 
Q 959 1441 959 1056 
Q 959 750 1161 570 
Q 1363 391 1709 391 
Q 2188 391 2477 730 
Q 2766 1069 2766 1631 
L 2766 1759 
L 2194 1759 
z
M 3341 1997 
L 3341 0 
L 2766 0 
L 2766 531 
Q 2569 213 2275 61 
Q 1981 -91 1556 -91 
Q 1019 -91 701 211 
Q 384 513 384 1019 
Q 384 1609 779 1909 
Q 1175 2209 1959 2209 
L 2766 2209 
L 2766 2266 
Q 2766 2663 2505 2880 
Q 2244 3097 1772 3097 
Q 1472 3097 1187 3025 
Q 903 2953 641 2809 
L 641 3341 
Q 956 3463 1253 3523 
Q 1550 3584 1831 3584 
Q 2591 3584 2966 3190 
Q 3341 2797 3341 1997 
z
" transform="scale(0.015625)"/>
      </defs>
      <use xlink:href="#DejaVuSans-73"/>
      <use xlink:href="#DejaVuSans-74" x="52.099609"/>
      <use xlink:href="#DejaVuSans-61" x="91.308594"/>
      <use xlink:href="#DejaVuSans-72" x="152.587891"/>
     </g>
    </g>
    <g id="line2d_36">
     <path d="M 815.08 343.176562 
L 825.08 343.176562 
L 835.08 343.176562 
" style="fill: none; stroke: #ff7f0e; stroke-width: 1.5; stroke-linecap: square"/>
    </g>
    <g id="text_19">
     <!-- fork -->
     <g style="fill: #a9a9a9" transform="translate(843.08 346.676562)scale(0.1 -0.1)">
      <defs>
       <path id="DejaVuSans-66" d="M 2375 4863 
L 2375 4384 
L 1825 4384 
Q 1516 4384 1395 4259 
Q 1275 4134 1275 3809 
L 1275 3500 
L 2222 3500 
L 2222 3053 
L 1275 3053 
L 1275 0 
L 697 0 
L 697 3053 
L 147 3053 
L 147 3500 
L 697 3500 
L 697 3744 
Q 697 4328 969 4595 
Q 1241 4863 1831 4863 
L 2375 4863 
z
" transform="scale(0.015625)"/>
       <path id="DejaVuSans-6b" d="M 581 4863 
L 1159 4863 
L 1159 1991 
L 2875 3500 
L 3609 3500 
L 1753 1863 
L 3688 0 
L 2938 0 
L 1159 1709 
L 1159 0 
L 581 0 
L 581 4863 
z
" transform="scale(0.015625)"/>
      </defs>
      <use xlink:href="#DejaVuSans-66"/>
      <use xlink:href="#DejaVuSans-6f" x="35.205078"/>
      <use xlink:href="#DejaVuSans-72" x="96.386719"/>
      <use xlink:href="#DejaVuSans-6b" x="137.5"/>
     </g>
    </g>
   </g>
  </g>
 </g>
 <defs>
  <clipPath id="pe3c94a5e11">
   <rect x="108" y="43.2" width="669.6" height="277.2"/>
  </clipPath>
 </defs>
</svg>
